<svg xmlns="http://www.w3.org/2000/svg" viewBox="0 0 24 24" fill="none" stroke="#000000" stroke-linecap="round" stroke-linejoin="round" id="Orbit--Streamline-Lucide" height="24" width="24">
  <desc>
    Orbit Streamline Icon: https://streamlinehq.com
  </desc>
  <path d="M9 12a3 3 0 1 0 6 0 3 3 0 1 0 -6 0" stroke-width="2"></path>
  <path d="M17 5a2 2 0 1 0 4 0 2 2 0 1 0 -4 0" stroke-width="2"></path>
  <path d="M3 19a2 2 0 1 0 4 0 2 2 0 1 0 -4 0" stroke-width="2"></path>
  <path d="M10.4 21.9a10 10 0 0 0 9.941 -15.416" stroke-width="2"></path>
  <path d="M13.5 2.1a10 10 0 0 0 -9.841 15.416" stroke-width="2"></path>
</svg>